HIERARCHY
ROOT Hips
{
  OFFSET -33.9132 29.2015 117.021
  CHANNELS 6 Xposition Yposition Zposition Zrotation Xrotation Yrotation
  JOINT LeftUpLeg
  {
    OFFSET 8.64259 1.95398 -2.38835
    CHANNELS 3 Zrotation Xrotation Yrotation
    JOINT LeftLeg
    {
      OFFSET 43.7702 0 0
      CHANNELS 3 Zrotation Xrotation Yrotation
      JOINT LeftFoot
      {
        OFFSET 40.6238 0 0
        CHANNELS 3 Zrotation Xrotation Yrotation
        JOINT LeftToeBase
        {
          OFFSET 12.7242 0 0
          CHANNELS 3 Zrotation Xrotation Yrotation
          End Site
          {
            OFFSET 0 0 0
          }
        }
      }
    }
  }
  JOINT RightUpLeg
  {
    OFFSET -8.2249 1.95398 -2.59336
    CHANNELS 3 Zrotation Xrotation Yrotation
    JOINT RightLeg
    {
      OFFSET 43.5653 0 0
      CHANNELS 3 Zrotation Xrotation Yrotation
      JOINT RightFoot
      {
        OFFSET 40.6238 0 0
        CHANNELS 3 Zrotation Xrotation Yrotation
        JOINT RightToeBase
        {
          OFFSET 12.7242 0 0
          CHANNELS 3 Zrotation Xrotation Yrotation
          End Site
          {
            OFFSET 0 0 0
          }
        }
      }
    }
  }
  JOINT Spine
  {
    OFFSET 0.165834 0.87714 6.61349
    CHANNELS 3 Zrotation Xrotation Yrotation
    JOINT Spine1
    {
      OFFSET 7.38963 1.71661e-005 0
      CHANNELS 3 Zrotation Xrotation Yrotation
      JOINT Spine2
      {
        OFFSET 11.9445 1.14441e-005 0
        CHANNELS 3 Zrotation Xrotation Yrotation
        JOINT Spine3
        {
          OFFSET 14.7254 4.19617e-005 0
          CHANNELS 3 Zrotation Xrotation Yrotation
          JOINT Spine4
          {
            OFFSET 10.9679 0 0
            CHANNELS 3 Zrotation Xrotation Yrotation
            JOINT RightShoulder
            {
              OFFSET 2.46616 -1.6653 3.69651
              CHANNELS 3 Zrotation Xrotation Yrotation
              JOINT RightArm
              {
                OFFSET 13.0012 0 0
                CHANNELS 3 Zrotation Xrotation Yrotation
                JOINT RightForeArm
                {
                  OFFSET 28.7848 1.62311e-005 0
                  CHANNELS 3 Zrotation Xrotation Yrotation
                  JOINT RightHand
                  {
                    OFFSET 26.5688 1.62095e-005 0
                    CHANNELS 3 Zrotation Xrotation Yrotation
                    End Site
                    {
                      OFFSET 0 0 0
                    }
                  }
                }
              }
            }
            JOINT LeftShoulder
            {
              OFFSET 2.38034 -1.29275 -3.7523
              CHANNELS 3 Zrotation Xrotation Yrotation
              JOINT LeftArm
              {
                OFFSET 16.3182 6.07031e-005 0
                CHANNELS 3 Zrotation Xrotation Yrotation
                JOINT LeftForeArm
                {
                  OFFSET 27.0901 0 0
                  CHANNELS 3 Zrotation Xrotation Yrotation
                  JOINT LeftHand
                  {
                    OFFSET 24.5451 1.51738e-005 0
                    CHANNELS 3 Zrotation Xrotation Yrotation
                    End Site
                    {
                      OFFSET 0 0 0
                    }
                  }
                }
              }
            }
            JOINT Neck
            {
              OFFSET 5.0226 -0.0266342 0
              CHANNELS 3 Zrotation Xrotation Yrotation
              JOINT Head
              {
                OFFSET 6.69364 2.86102e-005 0
                CHANNELS 3 Zrotation Xrotation Yrotation
                End Site
                {
                  OFFSET 0 0 0
                }
              }
            }
          }
        }
      }
    }
  }
}
MOTION
Frames:	15
Frame Time:	0.0416667
35.4654 37.1769 4.30424 -136.095 -81.7457 -135.029 -38.8681 56.7029 -8.67143 -144.303 -7.37209 8.9498 107.431 28.1553 -4.6748 10.8429 -16.4094 11.2722 60.8123 46.9861 -179.477 -139.684 20.8801 -9.80639 99.3292 -31.9639 -8.50443 29.3787 -1.23347 4.03812 0.882395 12.9071 -90.3061 1.06202 1.64519 -0.538794 -10.608 1.61988 -0.610706 -33.1515 1.73103 -0.0192992 -13.1389 1.73104 -0.0193013 89.0511 -18.5028 -114.326 38.4043 -2.19515 -52.2928 -10.926 -74.3923 -10.2496 -36.6814 -5.00964 10.1351 -92.1727 -32.6797 70.2322 -24.9579 1.07757 -78.3035 -11.5778 67.4191 -0.0234592 17.5779 2.40221 10.4997 15.9396 -3.85608 -3.39592 3.35497 -2.65077 2.57269 
35.6558 37.2672 4.06635 -146.034 -82.0764 -144.539 -41.6441 57.7199 -8.50472 -143.621 -8.78217 8.94817 108.043 28.1199 -5.73804 9.83557 -16.9621 11.0626 61.2405 47.5434 178.136 -139.766 19.873 -9.76281 102.234 -33.4334 -6.65166 26.2897 0.657375 1.78877 0.794993 12.964 -90.4176 0.948802 1.42888 -0.761133 -10.7216 1.39401 -0.823311 -33.2627 1.59156 -0.296426 -13.25 1.59156 -0.29642 89.1053 -18.3017 -114.319 38.0055 -1.91609 -52.7195 -11.5 -75.4576 -10.7973 -33.1897 -3.97883 8.40495 -92.1374 -32.4036 70.1935 -25.8673 0.81423 -78.2349 -11.1963 67.0065 -0.0230605 22.1736 2.40169 8.95411 16.4098 -2.46681 -1.50708 4.38699 -1.96804 -0.168735 
35.6474 37.2664 4.04961 -145.912 -82.0357 -144.503 -41.5805 57.7641 -8.48381 -143.713 -8.6249 8.93083 107.86 27.6251 -6.38438 10.3865 -17.7079 12.626 61.1633 47.5678 178.326 -139.754 19.8443 -9.76518 101.853 -33.3044 -6.93225 26.5689 0.521421 1.84629 0.786852 12.9548 -90.3944 0.967132 1.42139 -0.716641 -10.7033 1.38847 -0.778524 -33.2443 1.57104 -0.256234 -13.2317 1.57104 -0.256252 88.9153 -18.506 -114.642 37.5888 -1.55064 -52.9644 -10.7278 -73.9871 -10.0601 -28.6076 -3.00426 6.67671 -92.1363 -32.1688 70.1078 -25.5584 1.05262 -77.98 -11.2397 67.9167 -0.0239605 17.1333 2.01868 8.44339 16.0855 -2.62937 -2.02603 4.57382 -1.96082 0.261027 
35.6764 37.2177 4.12768 -145.824 -81.9785 -144.327 -42.4227 57.7514 -7.64518 -143.403 -8.97831 8.98358 110.031 30.1795 -4.95124 9.20748 -16.4808 9.82671 61.18 47.5913 178.303 -139.861 20.0286 -9.74693 101.969 -33.1785 -6.7018 26.5879 0.530945 1.77936 0.80152 12.962 -90.4119 0.952932 1.44411 -0.749571 -10.7175 1.40971 -0.812419 -33.2587 1.6026 -0.280805 -13.246 1.6026 -0.280819 88.9493 -18.3816 -114.638 37.6609 -1.64723 -53.0194 -10.4588 -73.4335 -9.81786 -25.8071 -2.36035 5.34163 -92.2038 -32.3975 70.0703 -25.2596 1.04917 -78.0919 -11.3656 68.1779 -0.024233 17.5728 2.44762 10.8392 16.1327 -2.60596 -1.89066 4.64306 -1.97346 0.277263 
35.6571 37.2123 4.10622 -145.521 -81.9351 -144.097 -42.0484 57.7426 -7.93211 -143.578 -8.80944 8.96402 109.227 29.2546 -5.41719 11.0211 -16.4687 11.5291 61.2822 47.5966 178.337 -139.815 19.9373 -9.74145 101.776 -33.3191 -7.11156 26.741 0.416677 1.95308 0.801838 12.9675 -90.4079 0.942043 1.44621 -0.741558 -10.7283 1.41218 -0.804493 -33.2696 1.6022 -0.272554 -13.257 1.6022 -0.272536 89.0159 -18.3632 -114.493 37.49 -1.48235 -53.0746 -11.424 -75.3285 -10.7268 -25.6649 -2.36816 5.42035 -92.2184 -32.3967 70.0434 -25.4111 0.969162 -78.1261 -11.2944 68.0188 -0.0240663 17.4677 2.40366 10.5837 16.2605 -2.57744 -1.8551 4.60316 -1.94681 0.37872 
35.6417 37.2768 4.05107 -146.046 -82.0296 -144.513 -41.5242 57.8741 -8.57357 -143.673 -8.68347 8.92421 107.915 27.7042 -6.29344 12.2686 -16.6315 12.9955 61.3485 47.4584 178.14 -139.688 19.8886 -9.78771 101.862 -33.427 -7.05632 26.5577 0.524152 1.85459 0.795972 12.9668 -90.4378 0.943576 1.42329 -0.800542 -10.7269 1.38668 -0.862424 -33.2678 1.59807 -0.335696 -13.2551 1.59807 -0.335695 89.0799 -18.1715 -114.458 37.7104 -1.70027 -53.0184 -11.1631 -74.858 -10.479 -28.7906 -3.15958 7.36796 -92.2717 -32.4449 69.9645 -25.204 0.993348 -78.0912 -11.3672 68.0823 -0.0241325 17.2912 2.38086 10.5721 16.2345 -2.5922 -1.50325 4.63194 -2.08294 0.0167573 
35.648 37.2245 4.10326 -145.916 -81.9941 -144.458 -42.133 57.7568 -7.92553 -143.538 -8.94793 8.97016 109.453 29.2853 -5.59371 10.7339 -16.5237 11.3769 61.2855 47.5263 178.237 -139.785 20.0395 -9.76629 101.924 -33.3173 -6.91755 26.7565 0.447223 1.81281 0.801956 12.9823 -90.4392 0.912532 1.43475 -0.802291 -10.7579 1.39806 -0.864665 -33.2989 1.60953 -0.333914 -13.2863 1.60953 -0.333913 89.1765 -18.0862 -114.281 37.535 -1.60025 -53.2842 -10.8283 -74.2083 -10.1616 -27.2622 -2.71082 6.13351 -92.2498 -32.702 70.1 -25.2266 1.03353 -78.3838 -11.3997 67.7567 -0.0237968 17.5253 2.17069 9.18378 16.4993 -2.59367 -1.40796 4.34461 -2.11108 -0.0466352 
35.6294 37.2025 4.13193 -146.761 -82.0001 -145.368 -42.477 57.8377 -7.64357 -143.473 -8.97597 8.96916 109.879 29.668 -5.52648 8.83091 -17.0639 10.2539 61.1867 47.5791 178.258 -139.842 19.9957 -9.75889 101.745 -33.401 -7.23107 26.7804 0.398967 1.95428 0.773272 12.9805 -90.4325 0.91612 1.38 -0.791341 -10.7544 1.34385 -0.851309 -33.2949 1.55403 -0.339925 -13.2822 1.55402 -0.339945 89.0708 -18.1698 -114.481 37.469 -1.45664 -53.0661 -11.3462 -75.1816 -10.6475 -27.5919 -2.57441 5.50397 -92.253 -32.6794 70.0862 -25.0973 1.0405 -78.1851 -11.371 68.4807 -0.0245575 17.731 2.65481 12.0469 16.1948 -2.58658 -1.38211 4.49222 -2.12727 -0.222223 
35.5879 37.2989 4.10719 -146.395 -82.0237 -145.108 -41.9556 57.8325 -8.00749 -143.695 -8.64043 8.93425 108.216 27.9193 -6.29435 12.1048 -16.5289 12.6867 61.4092 47.6657 178.102 -139.711 20.0634 -9.76242 101.934 -33.3759 -6.9928 26.9084 0.390021 1.7747 0.781078 12.9964 -90.4532 0.884343 1.38793 -0.83074 -10.7862 1.35002 -0.89103 -33.3267 1.57342 -0.375127 -13.314 1.57342 -0.375133 89.3844 -17.7901 -113.967 37.9031 -1.95544 -53.1597 -10.84 -74.2243 -10.1696 -30.0699 -3.42785 7.79768 -92.3668 -33.2942 70.1088 -24.8088 0.929891 -78.5669 -11.3209 69.6931 -0.0259562 18.8808 2.0706 8.4485 16.7987 -2.55081 -0.977569 4.05008 -2.19294 -0.143544 
35.5658 37.3042 4.12231 -146.037 -82.0461 -144.758 -41.8799 57.991 -8.04348 -143.649 -8.65464 8.92759 108.495 27.9297 -6.63334 12.8071 -16.3661 13.1723 61.4244 47.693 178.137 -139.668 20.2908 -9.78275 102.173 -33.4527 -6.72582 26.7945 0.398321 1.93326 0.773439 12.9677 -90.4169 0.941517 1.38619 -0.761213 -10.7289 1.35136 -0.821488 -33.2696 1.55087 -0.309337 -13.2569 1.55087 -0.309325 89.0041 -18.2266 -114.603 37.4069 -1.43139 -53.1917 -11.2846 -75.0755 -10.5912 -25.5344 -2.39622 5.62765 -92.2713 -32.7777 70.0898 -25.2448 1.0129 -78.1044 -11.272 68.6688 -0.0247638 17.2162 2.60079 11.9699 16.1374 -2.66862 -1.56918 4.54066 -2.14014 0.0139427 
35.5758 37.3343 4.14023 -145.425 -82.0277 -144.208 -42.3382 57.8418 -7.56266 -143.543 -8.68957 8.954 109.01 28.7689 -5.92153 10.8295 -16.7708 11.7663 61.3789 47.7794 178.236 -139.729 20.1721 -9.74356 102.065 -33.3214 -6.66814 26.8113 0.407381 1.87089 0.784808 12.9813 -90.4185 0.914364 1.40834 -0.762931 -10.7561 1.37341 -0.824191 -33.2969 1.57251 -0.304316 -13.2843 1.57251 -0.304318 89.3001 -18.0996 -113.981 37.7469 -1.91913 -53.5421 -10.6186 -73.7561 -9.95589 -25.258 -2.32646 5.41107 -92.214 -32.8938 70.2366 -25.1296 1.04728 -78.3527 -11.3775 68.305 -0.0243681 17.6687 2.4526 10.8585 16.5978 -2.64497 -1.28627 4.21705 -2.20174 -0.179005 
35.5622 37.3646 4.10376 -145.685 -82.0613 -144.433 -41.9782 57.9187 -7.98524 -143.634 -8.66889 8.93285 108.115 27.6676 -6.55525 10.8881 -17.1602 12.3652 61.4074 47.7694 178.12 -139.646 20.3796 -9.76605 102.401 -33.3365 -6.22046 26.5918 0.519123 1.81685 0.778459 12.9803 -90.4314 0.916504 1.39081 -0.78872 -10.754 1.35475 -0.849194 -33.2946 1.56354 -0.334173 -13.282 1.56354 -0.334191 89.3663 -17.9684 -113.903 37.7319 -1.93234 -53.6357 -10.8394 -74.2185 -10.1665 -25.4948 -2.4228 5.74236 -92.2506 -32.8926 70.1699 -25.0038 1.02724 -78.349 -11.4522 67.7725 -0.0238128 17.3488 2.2901 9.96277 16.4275 -2.67628 -1.19283 4.36561 -2.26749 -0.289893 
35.5949 37.2614 4.21144 -145.502 -82.0618 -144.223 -42.6486 57.818 -7.36315 -143.352 -9.04348 8.99115 110.093 30.012 -5.25032 9.49737 -16.3319 9.8782 61.2693 47.7085 178.203 -139.823 20.3272 -9.75231 102.365 -33.3701 -6.48073 26.788 0.370399 2.04902 0.779004 12.9807 -90.4371 0.915792 1.38974 -0.79989 -10.7547 1.35319 -0.860285 -33.2953 1.56587 -0.345159 -13.2827 1.56587 -0.345164 89.4128 -17.8945 -113.836 38.1053 -2.32503 -53.598 -10.1017 -72.5662 -9.469 -26.395 -2.67669 6.45144 -92.3051 -32.7329 70.0116 -24.9506 0.89071 -78.2908 -11.4234 67.5895 -0.0236283 17.3536 2.22748 9.57212 16.4567 -2.6245 -1.0621 4.35101 -2.27147 -0.571133 
35.5689 37.3513 4.12946 -145.379 -81.9273 -144.199 -42.3383 57.8889 -7.52302 -143.656 -8.72192 8.93657 108.487 28.0731 -6.25145 10.2961 -17.015 11.586 61.4432 47.8379 178.127 -139.757 20.1838 -9.73756 102.209 -33.1842 -6.27391 26.6867 0.549246 1.54729 0.788445 12.9784 -90.4247 0.920258 1.41325 -0.775026 -10.7502 1.37778 -0.836483 -33.2911 1.58082 -0.314373 -13.2784 1.58083 -0.314383 89.3723 -17.9444 -113.903 37.7355 -1.91566 -53.5748 -11.2411 -74.9956 -10.5498 -25.3539 -2.43357 5.8544 -92.3702 -32.7102 69.8848 -24.8091 0.910132 -78.1417 -11.489 67.869 -0.0239114 17.8349 2.35977 10.1797 16.3521 -2.71382 -1.2446 4.50754 -2.29649 -0.384768 
35.5588 37.2834 4.1348 -145.05 -81.9907 -143.807 -42.1081 57.7541 -7.86395 -143.601 -9.00869 8.96729 108.567 28.339 -5.89944 9.53458 -16.7314 10.4654 61.4018 47.6552 178.157 -139.764 20.1956 -9.75867 102.441 -33.4587 -6.38887 26.515 0.597775 1.65151 0.777839 12.9608 -90.4423 0.955508 1.38535 -0.811066 -10.715 1.3483 -0.871279 -33.2555 1.56504 -0.357144 -13.2429 1.56504 -0.357143 89.3167 -17.7723 -114.139 37.7882 -1.87513 -53.2887 -11.0555 -74.6562 -10.378 -24.5805 -2.19571 5.13937 -92.471 -32.9751 69.8018 -24.6347 0.81701 -78.0363 -11.6253 67.0087 -0.0230626 17.0735 1.89964 7.5966 16.2137 -2.62471 -0.887749 4.48043 -2.33074 -0.684231 
